<svg xmlns="http://www.w3.org/2000/svg" version="1.1" xmlns:xlink="http://www.w3.org/1999/xlink" xmlns:svgjs="http://svgjs.dev/svgjs" width="2000" height="545" viewBox="0 0 2000 545"><g transform="matrix(1,0,0,1,-1.2121212121212466,-1.1640153112667235)"><svg viewBox="0 0 396 108" data-background-color="#ffffff" preserveAspectRatio="xMidYMid meet" height="545" width="2000" xmlns="http://www.w3.org/2000/svg" xmlns:xlink="http://www.w3.org/1999/xlink"><g id="tight-bounds" transform="matrix(1,0,0,1,0.2400000000000091,0.23066725434276236)"><svg viewBox="0 0 395.52 107.53866549131448" height="107.53866549131448" width="395.52"><g><svg viewBox="0 0 395.52 107.53866549131448" height="107.53866549131448" width="395.52"><g><svg viewBox="0 0 395.52 107.53866549131448" height="107.53866549131448" width="395.52"><g id="textblocktransform"><svg viewBox="0 0 395.52 107.53866549131448" height="107.53866549131448" width="395.52" id="textblock"><g><svg viewBox="0 0 395.52 107.53866549131448" height="107.53866549131448" width="395.52"><rect width="395.52" height="107.53866549131448" x="0" y="0" opacity="1" fill="#8dbdff" data-fill-palette-color="tertiary"></rect><g transform="matrix(1,0,0,1,23.607599999999998,23.607599999999994)"><svg width="348.3048" viewBox="4.45 -32.75 192.83 33.4" height="60.32346549131449" data-palette-color="#ffffff"><path d="M4.45-2.2L4.45-18.3 8.5-18.3 8.5-0.4Q8.3-0.35 7.75-0.18 7.2 0 6.65 0L6.65 0Q5.65 0 5.05-0.63 4.45-1.25 4.45-2.2L4.45-2.2ZM8.5-30L8.5-12.4 4.45-12.45 4.45-28.2Q4.45-29.2 5.05-29.8 5.65-30.4 6.65-30.4L6.65-30.4Q7.2-30.4 7.75-30.25 8.3-30.1 8.5-30L8.5-30ZM20.6-13.9L6.65-13.9 6.65-17.3 21.7-17.3Q21.85-17.1 22-16.65 22.15-16.2 22.15-15.7L22.15-15.7Q22.15-14.9 21.75-14.4 21.35-13.9 20.6-13.9L20.6-13.9ZM22.4 0L6.65 0 6.65-3.4 23.5-3.4Q23.65-3.2 23.8-2.78 23.95-2.35 23.95-1.8L23.95-1.8Q23.95-1 23.55-0.5 23.15 0 22.4 0L22.4 0ZM22.15-26.95L6.65-26.95 6.65-30.4 23.25-30.4Q23.4-30.2 23.55-29.75 23.7-29.3 23.7-28.8L23.7-28.8Q23.7-28 23.3-27.48 22.9-26.95 22.15-26.95L22.15-26.95ZM35.05-27.1L35.05-14.9 40.8-14.9Q44.5-14.9 46.6-16.5 48.7-18.1 48.7-21.25L48.7-21.25Q48.7-24.35 46.5-25.95 44.3-27.55 40.2-27.55L40.2-27.55Q38.85-27.55 37.47-27.43 36.1-27.3 35.05-27.1L35.05-27.1ZM40.8-11.5L40.8-11.5 31-11.5 31-28.2Q31-29 31.42-29.43 31.85-29.85 32.65-30.1L32.65-30.1Q34.1-30.55 36.22-30.75 38.35-30.95 40.35-30.95L40.35-30.95Q46.6-30.95 49.7-28.4 52.8-25.85 52.8-21.25L52.8-21.25Q52.8-18.3 51.45-16.1 50.1-13.9 47.45-12.7 44.8-11.5 40.8-11.5ZM49.1-1.3L40.9-12.8 43.9-14.3Q45.3-12.55 46.8-10.65 48.3-8.75 49.7-6.95 51.1-5.15 52.2-3.73 53.3-2.3 53.9-1.5L53.9-1.5Q53.7-0.65 53.02-0.15 52.35 0.35 51.65 0.35L51.65 0.35Q50.8 0.35 50.25-0.08 49.7-0.5 49.1-1.3L49.1-1.3ZM31-1.6L31-12.6 35.1-12.6 35.1-0.1Q34.8 0 34.3 0.13 33.8 0.25 33.2 0.25L33.2 0.25Q32.1 0.25 31.55-0.2 31-0.65 31-1.6L31-1.6ZM83.94-22.85L83.94-22.85Q84.34-23.05 84.94-23.2 85.54-23.35 86.19-23.35L86.19-23.35Q87.19-23.35 87.87-23.03 88.54-22.7 88.74-22.05L88.74-22.05Q89.99-18.45 91.02-15.38 92.04-12.3 92.97-9.43 93.89-6.55 94.84-3.5L94.84-3.5 95.04-3.5Q95.99-8 96.89-12.28 97.79-16.55 98.64-20.95 99.49-25.35 100.19-30.35L100.19-30.35Q100.89-30.7 101.89-30.7L101.89-30.7Q102.84-30.7 103.39-30.28 103.94-29.85 103.94-29L103.94-29Q103.94-28.05 103.67-26.13 103.39-24.2 102.92-21.63 102.44-19.05 101.82-16.18 101.19-13.3 100.49-10.43 99.79-7.55 99.09-5 98.39-2.45 97.74-0.55L97.74-0.55Q97.29-0.3 96.59-0.08 95.89 0.15 94.99 0.15L94.99 0.15Q93.89 0.15 93.14-0.2 92.39-0.55 92.14-1.15L92.14-1.15Q91.44-2.9 90.44-5.78 89.44-8.65 88.37-12.08 87.29-15.5 86.29-18.85L86.29-18.85Q85.34-15.55 84.24-12 83.14-8.45 82.12-5.4 81.09-2.35 80.29-0.5L80.29-0.5Q79.94-0.3 79.22-0.08 78.49 0.15 77.59 0.15L77.59 0.15Q76.49 0.15 75.77-0.23 75.04-0.6 74.79-1.15L74.79-1.15Q74.29-2.4 73.57-4.9 72.84-7.4 72.04-10.63 71.24-13.85 70.47-17.32 69.69-20.8 69.02-24.03 68.34-27.25 67.94-29.75L67.94-29.75Q68.29-30.1 68.89-30.4 69.49-30.7 70.19-30.7L70.19-30.7Q71.09-30.7 71.59-30.28 72.09-29.85 72.29-28.85L72.29-28.85Q72.94-25.7 73.54-22.75 74.14-19.8 74.77-16.8 75.39-13.8 76.09-10.53 76.79-7.25 77.64-3.5L77.64-3.5 77.84-3.5Q78.54-5.75 79.19-7.8 79.84-9.85 80.54-12.03 81.24-14.2 82.07-16.8 82.89-19.4 83.94-22.85ZM131.34-11.55L131.34-11.55Q131.34-7.85 129.94-5.1 128.54-2.35 125.99-0.85 123.44 0.65 119.99 0.65L119.99 0.65Q116.54 0.65 113.97-0.85 111.39-2.35 109.99-5.1 108.59-7.85 108.59-11.55L108.59-11.55Q108.59-15.3 110.02-18.03 111.44-20.75 114.02-22.25 116.59-23.75 119.99-23.75L119.99-23.75Q123.39-23.75 125.94-22.25 128.49-20.75 129.92-18.03 131.34-15.3 131.34-11.55ZM119.99-20.45L119.99-20.45Q116.64-20.45 114.67-18.07 112.69-15.7 112.69-11.55L112.69-11.55Q112.69-7.35 114.62-5 116.54-2.65 119.99-2.65L119.99-2.65Q123.39-2.65 125.32-5.03 127.24-7.4 127.24-11.55L127.24-11.55Q127.24-15.7 125.32-18.07 123.39-20.45 119.99-20.45ZM141.54-18.8L141.54-18.8 141.54-10.9 137.54-10.9 137.54-18.5Q137.54-19.65 137.96-20.33 138.39-21 139.39-21.65L139.39-21.65Q140.69-22.5 142.94-23.13 145.19-23.75 147.94-23.75L147.94-23.75Q151.94-23.75 151.94-21.75L151.94-21.75Q151.94-21.25 151.79-20.83 151.64-20.4 151.39-20.1L151.39-20.1Q150.89-20.2 150.09-20.3 149.29-20.4 148.49-20.4L148.49-20.4Q146.19-20.4 144.44-19.93 142.69-19.45 141.54-18.8ZM137.54-1.55L137.54-13.2 141.54-12.6 141.54-0.1Q141.29 0 140.79 0.13 140.29 0.25 139.69 0.25L139.69 0.25Q138.64 0.25 138.09-0.18 137.54-0.6 137.54-1.55L137.54-1.55ZM172.59-19.15L162.79-10.55 160.29-12.5 171.69-23.55Q172.89-23.5 173.56-22.98 174.24-22.45 174.24-21.6L174.24-21.6Q174.24-20.9 173.81-20.35 173.39-19.8 172.59-19.15L172.59-19.15ZM170.84-1.15L160.19-11.85 162.99-13.5 175.69-2.1Q175.59-1 175.01-0.35 174.44 0.3 173.49 0.3L173.49 0.3Q172.74 0.3 172.11-0.1 171.49-0.5 170.84-1.15L170.84-1.15ZM156.74-1.55L156.74-13.4 160.74-12.8 160.74-0.1Q160.49 0 159.99 0.13 159.49 0.25 158.89 0.25L158.89 0.25Q157.84 0.25 157.29-0.18 156.74-0.6 156.74-1.55L156.74-1.55ZM160.74-30.95L160.74-10.85 156.74-11.45 156.74-32.4Q156.99-32.5 157.51-32.63 158.04-32.75 158.64-32.75L158.64-32.75Q159.69-32.75 160.21-32.33 160.74-31.9 160.74-30.95L160.74-30.95ZM197.28-6.15L197.28-6.15Q197.28-2.95 194.93-1.15 192.58 0.65 188.13 0.65L188.13 0.65Q184.33 0.65 181.93-0.53 179.53-1.7 179.53-3.1L179.53-3.1Q179.53-3.7 179.86-4.28 180.18-4.85 180.83-5.2L180.83-5.2Q182.18-4.25 183.98-3.45 185.78-2.65 188.08-2.65L188.08-2.65Q193.28-2.65 193.28-6.15L193.28-6.15Q193.28-7.6 192.41-8.53 191.53-9.45 189.83-9.85L189.83-9.85 185.68-10.95Q182.63-11.7 181.23-13.28 179.83-14.85 179.83-17.2L179.83-17.2Q179.83-19.85 181.98-21.8 184.13-23.75 188.53-23.75L188.53-23.75Q190.88-23.75 192.63-23.28 194.38-22.8 195.36-22.03 196.33-21.25 196.33-20.35L196.33-20.35Q196.33-19.7 196.01-19.2 195.68-18.7 195.13-18.45L195.13-18.45Q194.53-18.85 193.61-19.33 192.68-19.8 191.43-20.13 190.18-20.45 188.68-20.45L188.68-20.45Q186.48-20.45 185.13-19.6 183.78-18.75 183.78-17.2L183.78-17.2Q183.78-16.1 184.56-15.28 185.33-14.45 187.03-14.05L187.03-14.05 190.48-13.2Q193.88-12.4 195.58-10.68 197.28-8.95 197.28-6.15Z" opacity="1" transform="matrix(1,0,0,1,0,0)" fill="#ffffff" class="wordmark-text-0" data-fill-palette-color="quaternary" id="text-0"></path></svg></g></svg></g></svg></g></svg></g></svg></g><defs></defs></svg><rect width="395.52" height="107.53866549131448" fill="none" stroke="none" visibility="hidden"></rect></g></svg></g></svg>